<?xml version="1.0" encoding="UTF-8" standalone="no"?>
<svg
   xmlns:dc="http://purl.org/dc/elements/1.1/"
   xmlns:cc="http://creativecommons.org/ns#"
   xmlns:rdf="http://www.w3.org/1999/02/22-rdf-syntax-ns#"
   xmlns:svg="http://www.w3.org/2000/svg"
   xmlns="http://www.w3.org/2000/svg"
   width="253.63426mm"
   height="61.605888mm"
   viewBox="0 0 253.63427 61.605889"
   version="1.1"
   id="svg8">
  <defs
     id="defs2" />
  <metadata
     id="metadata5">
    <rdf:RDF>
      <cc:Work
         rdf:about="">
        <dc:format>image/svg+xml</dc:format>
        <dc:type
           rdf:resource="http://purl.org/dc/dcmitype/StillImage" />
        <dc:title></dc:title>
      </cc:Work>
    </rdf:RDF>
  </metadata>
  <g
     id="layer1"
     transform="translate(81.828004,-432.40974)">
    <path
       id="path1768-5-7"
       style="color:#000000;font-style:normal;font-variant:normal;font-weight:normal;font-stretch:normal;font-size:medium;line-height:normal;font-family:sans-serif;font-variant-ligatures:normal;font-variant-position:normal;font-variant-caps:normal;font-variant-numeric:normal;font-variant-alternates:normal;font-variant-east-asian:normal;font-feature-settings:normal;font-variation-settings:normal;text-indent:0;text-align:start;text-decoration:none;text-decoration-line:none;text-decoration-style:solid;text-decoration-color:#000000;letter-spacing:normal;word-spacing:normal;text-transform:none;writing-mode:lr-tb;direction:ltr;text-orientation:mixed;dominant-baseline:auto;baseline-shift:baseline;text-anchor:start;white-space:normal;shape-padding:0;shape-margin:0;inline-size:0;clip-rule:nonzero;display:inline;overflow:visible;visibility:visible;isolation:auto;mix-blend-mode:normal;color-interpolation:sRGB;color-interpolation-filters:linearRGB;solid-color:#000000;solid-opacity:1;vector-effect:none;fill:#1a1a1a;fill-opacity:1;fill-rule:nonzero;stroke:none;stroke-width:3;stroke-linecap:butt;stroke-linejoin:round;stroke-miterlimit:4;stroke-dasharray:none;stroke-dashoffset:0;stroke-opacity:1;color-rendering:auto;image-rendering:auto;shape-rendering:auto;text-rendering:auto;enable-background:accumulate;stop-color:#000000"
       d="m 151.05295,432.41063 v 5.2e-4 a 1.50015,1.50015 0 0 0 -0.28525,0.0269 c -10.33757,0.14897 -18.83412,8.17529 -18.9513,19.07636 a 1.50015,1.50015 0 0 0 0,0.006 c -8e-5,0.0119 -8e-5,0.017 0,0.0289 v 11.78532 11.14041 c -2e-5,0.009 -6e-5,0.018 0,0.0258 a 1.50015,1.50015 0 0 0 0,0.0134 c 0.0928,5.64789 2.15784,10.04232 5.02915,13.10773 4.28151,4.5749 10.03261,6.30039 14.10198,6.30039 4.19383,0 10.00004,-1.72704 14.29681,-6.26732 l -1.05679,-1.05678 c 0,-10e-6 0,-10e-4 0,-0.002 h 5.3e-4 l 1.09916,1.02112 c 0.0399,-0.043 0.071,-0.0929 0.10749,-0.13849 l 0.16795,-0.22117 c 2.76889,-3.09491 4.72477,-7.4368 4.72477,-12.99404 v -0.004 a 1.50015,1.50015 0 0 0 0,-0.006 l -0.0491,-10.93163 -0.0548,-11.75794 c 0.1188,-11.06034 -8.75368,-19.15437 -19.13063,-19.15437 z m -165.090691,0.21084 a 1.50015,1.50015 0 0 0 -0.02376,5.2e-4 1.50015,1.50015 0 0 0 -0.07183,0.003 c -0.07963,0.005 -0.155493,0.0322 -0.234092,0.045 -4.20582,0.24299 -7.915299,2.91779 -9.190136,7.37319 l -6.49728,22.63014 -5.91178,20.59255 c -1.2e-4,2.6e-4 -5.3e-4,10e-4 -5.3e-4,0.002 l -0.004,0.0129 c -0.006,0.0192 -0.0115,0.0403 -0.0191,0.0698 a 1.50015,1.50015 0 0 0 -0.002,0.008 c -0.20267,0.80542 -0.27685,1.55417 -0.29714,2.23863 -0.0213,0.1307 -0.0357,0.2626 -0.0351,0.39532 a 1.50015,1.50015 0 0 0 5.3e-4,0.0119 c 0.002,0.19554 0.0301,0.38965 0.0796,0.5793 0.31491,4.0767 3.38819,6.62207 6.35051,6.90448 0.10236,0.0101 0.20488,0.0139 0.30748,0.0109 a 1.50015,1.50015 0 0 0 0.009,0 c 1.04238,-0.0373 2.79037,0.34229 4.76353,-0.49299 1.98206,-0.83905 3.382723,-2.81186 4.489134,-5.91385 0.02201,-0.0417 0.04771,-0.0816 0.06718,-0.12454 a 1.50015,1.50015 0 0 0 0.0057,-0.0129 c 0.0099,-0.0224 0.01762,-0.046 0.02687,-0.0687 a 1.50015,1.50015 0 0 0 0.07493,-0.20464 1.50015,1.50015 0 0 0 0.0011,-0.003 c 0.04167,-0.12549 0.07932,-0.24347 0.114204,-0.35295 a 1.50015,1.50015 0 0 0 0.0031,-0.008 1.50015,1.50015 0 0 0 0.02376,-0.0687 l 0.836125,-2.63705 h 10.3409692 l 0.851627,2.8174 a 1.50015,1.50015 0 0 0 0.0078,0.0248 l 0.0083,0.0253 0.04496,0.14159 -0.01138,-0.0527 a 1.50015,1.50015 0 0 0 0.100769,0.30076 l -0.06046,-0.15606 c 0.04214,0.13097 0.09899,0.25606 0.162779,0.37775 1.002676,2.91599 2.441634,4.86854 4.354775,5.81102 1.9027511,0.93735 3.74719006,0.75696 4.957836,0.70435 3.47471,-0.003 6.8553307,-2.80853 7.1902587,-6.99492 0.05521,-0.20248 0.08598,-0.41147 0.08682,-0.62219 a 1.50015,1.50015 0 0 0 0,-0.003 c 5e-6,-0.003 5e-6,-0.006 0,-0.009 -1.78e-4,-0.19712 -0.0265,-0.39246 -0.07441,-0.58291 -0.04437,-0.7545 -0.173599,-1.58173 -0.4402827,-2.45049 a 1.50015,1.50015 0 0 0 -0.04599,-0.21291 l -5.984595,-20.08039 -6.743774,-22.63066 a 1.50015,1.50015 0 0 0 -0.0052,-0.0155 c -0.0016,-0.005 -0.0035,-0.0106 -0.0052,-0.016 l 0.0052,0.0145 a 1.50015,1.50015 0 0 0 -0.01963,-0.0584 c -1.429787,-4.59532 -5.264051,-7.18974 -9.4640342,-7.31945 a 1.50015,1.50015 0 0 0 -0.0011,-5.1e-4 c -0.02307,-7e-4 -0.04618,4e-5 -0.06925,0 a 1.50015,1.50015 0 0 0 -0.0217,-5.2e-4 1.50015,1.50015 0 0 0 -0.0052,0 1.50015,1.50015 0 0 0 -0.02635,-5.1e-4 z m 36.159032,5.2e-4 c -0.202862,2.9e-4 -0.401876,0.0427 -0.597895,0.0935 -1.770769,0.10621 -3.565993,0.63384 -4.963004,1.92185 -1.551797,1.43074 -2.41949,3.5886 -2.41949,6.06836 v 22.62911 22.08186 c 0,0.23572 0.01058,0.45707 0.02326,0.66404 7.93e-4,0.0191 7.93e-4,0.0418 0.0021,0.0589 a 1.50015,1.50015 0 0 0 0,0.002 c 0.01839,0.26673 0.0934,0.52486 0.197403,0.76998 0.297133,1.95796 1.103824,3.68969 2.489772,4.82968 1.528397,1.25717 3.431482,1.75803 5.267894,1.75803 1.706316,0 3.558397,-0.47523 5.105632,-1.6893 1.385033,-1.08678 2.254303,-2.79064 2.601392,-4.76199 0.01069,-0.0212 0.02199,-0.0414 0.03101,-0.0605 a 1.50015,1.50015 0 0 0 0.01394,-0.0294 c 0.02816,-0.063 0.05266,-0.128 0.07596,-0.19534 a 1.50015,1.50015 0 0 0 0.0041,-0.008 c 0.02919,-0.0859 0.05136,-0.17394 0.0708,-0.26252 0.0016,-0.006 -2.36e-4,0.003 0.0031,-0.0109 a 1.50015,1.50015 0 0 0 0.01963,-0.0935 c 0,0 0,-5.3e-4 0,-5.3e-4 a 1.50015,1.50015 0 0 0 0.01757,-0.13281 c 0.0024,-0.0186 0.0057,-0.0358 0.0078,-0.0548 a 1.50015,1.50015 0 0 0 0.0062,-0.0506 c 0.01759,-0.24386 0.02326,-0.48763 0.02326,-0.73225 v -8.98654 l 7.46673,10.86756 0.0021,0.004 c 0.0037,0.006 0.0059,0.01 0.0098,0.0155 a 1.50015,1.50015 0 0 0 0.0155,0.0217 l 1.060918,1.54306 c 2.72654,4.00659 6.779951,5.39374 10.150285,4.5036 3.326296,-0.87852 5.917599,-3.68669 6.296773,-7.14427 0.20469,-1.86664 -0.301641,-3.87691 -1.590085,-5.61722 a 1.50015,1.50015 0 0 0 -0.06415,-0.0801 l 0.01913,0.0217 -8.9116,-12.17962 c 1.181105,-0.70061 2.554692,-1.69503 3.91759,-3.14658 l 0.111622,-0.10387 c 0.07284,-0.0643 0.148529,-0.1266 0.212905,-0.19895 2.552142,-2.8684 4.763535,-7.3499 4.763535,-13.71079 0,-9.47213 -8.074662,-18.60352 -19.550745,-18.60352 H 22.123355 a 1.50015,1.50015 0 0 0 -0.0021,0 z m 46.077808,0.0987 v 0.001 a 1.50015,1.50015 0 0 0 -0.452686,0.0703 1.50015,1.50015 0 0 0 -0.0021,0 1.50015,1.50015 0 0 0 -0.03927,0.0134 c -0.07389,0.0157 -0.150575,0.0146 -0.222726,0.0372 -1.639285,0.13157 -3.315997,0.65792 -4.656046,1.87275 -1.533847,1.39053 -2.478402,3.51359 -2.478402,5.99033 v 22.5702 c -5.29e-4,0.0203 -0.0021,0.0366 -0.0021,0.0589 v 22.08186 c 0,0.21628 0.0093,0.41339 0.02119,0.60151 7.94e-4,0.0527 0.0027,0.0916 0.0041,0.11731 a 1.50015,1.50015 0 0 0 0.0021,0.0233 c 0.01881,0.24311 0.09704,0.47505 0.187587,0.70125 0.311793,2.01854 1.200528,3.77435 2.628781,4.90822 1.551009,1.2313 3.442269,1.73064 5.242057,1.73064 1.799262,0 3.699693,-0.49614 5.271511,-1.71514 1.47788,-1.14614 2.450774,-2.92065 2.757455,-4.99969 0.0013,-0.003 0.0029,-0.006 0.0041,-0.01 l 0.0021,-0.008 c 0.02315,-0.0658 0.04177,-0.13109 0.05839,-0.19534 a 1.50015,1.50015 0 0 0 0.0041,-0.008 c 0.01738,-0.0689 0.03178,-0.13913 0.04289,-0.20877 a 1.50015,1.50015 0 0 0 0,-0.008 c 0.0083,-0.0538 0.01508,-0.10798 0.01963,-0.16227 v -0.008 c 2.4e-4,-0.0163 0.003,-0.22383 0.0041,-0.20102 5.29e-4,0.0124 0.0013,0.0391 0.0016,0.0641 2.64e-4,-0.0196 0.0021,-0.0459 0.0021,-0.062 0.01095,-0.17871 0.0217,-0.36239 0.0217,-0.56069 v -22.08239 -22.83943 c 0,-2.43579 -1.112232,-4.49825 -2.707328,-5.80482 -1.567537,-1.28398 -3.504594,-1.89413 -5.390369,-1.96473 a 1.50015,1.50015 0 0 0 -0.02532,0 h -0.05478 c -0.06988,-0.002 -0.14581,-0.004 -0.24443,-0.004 z m -140.708718,0.11214 a 1.50015,1.50015 0 0 0 -0.37517,0.0486 1.50015,1.50015 0 0 0 -0.047,0.0119 c -0.0803,0.0143 -0.16316,0.0127 -0.24184,0.0351 -0.008,0.002 -0.0161,0.002 -0.0238,0.004 -1.63432,0.10622 -3.34993,0.54997 -4.78317,1.70687 -1.64892,1.33099 -2.72025,3.49159 -2.72025,6.06629 v 22.62911 a 1.50015,1.50015 0 0 0 0,0.0388 c 3.5e-4,0.0133 9.5e-4,0.0246 0.002,0.0372 v 22.00589 c 0,0.23915 0.008,0.48346 0.0258,0.7307 a 1.50015,1.50015 0 0 0 0,0.0135 c 1.1e-4,10e-4 0.001,0.002 0.002,0.004 5e-5,5.3e-4 -5e-5,0.001 0,0.002 0.0217,0.26666 0.10503,0.52212 0.2129,0.76739 0.3309,2.02975 1.23497,3.78554 2.68563,4.8948 1.58639,1.21301 3.49003,1.67173 5.26376,1.67173 1.74314,0 3.605,-0.47788 5.12888,-1.71669 1.37756,-1.11983 2.19744,-2.84659 2.50786,-4.82245 0.12097,-0.26833 0.1982,-0.5533 0.21498,-0.84749 0.0149,-0.25936 0.0138,-0.47112 0.0196,-0.64647 a 1.50015,1.50015 0 0 0 0.002,-0.0512 v -14.32424 h 6.55671 v 14.32419 c 0,0.2357 0.005,0.47605 0.0217,0.72089 a 1.50015,1.50015 0 0 0 0,0.002 c 0.018,0.2626 0.0975,0.51501 0.19896,0.75758 0.31238,2.02589 1.18232,3.78217 2.59984,4.90668 1.54574,1.22624 3.41742,1.69705 5.15834,1.69705 1.74103,0 3.61055,-0.47082 5.15628,-1.69705 1.38502,-1.09873 2.22593,-2.80955 2.55849,-4.7718 0.13681,-0.27952 0.21916,-0.58407 0.2403,-0.89452 a 1.50015,1.50015 0 0 0 0,-0.004 c 0.0157,-0.23842 0.0233,-0.47694 0.0233,-0.71675 v -22.08192 -22.52524 c 0,-2.54921 -1.01235,-4.69919 -2.59777,-6.06629 -1.56397,-1.34861 -3.52523,-1.91048 -5.38262,-1.91048 -1.86172,0 -3.8352,0.50945 -5.40846,1.84381 -1.59747,1.3549 -2.56987,3.50116 -2.56987,6.02909 v 14.42806 h -6.44922 v -14.53348 c 0,-2.47912 -1.03974,-4.58016 -2.62309,-5.9061 -1.55653,-1.30348 -3.49648,-1.86024 -5.35006,-1.86138 z m 165.365093,0.42013 c -1.855004,0 -3.795283,0.55619 -5.353677,1.86087 -1.583795,1.32597 -2.622579,3.42756 -2.622579,5.90661 v 22.2343 0.0212 c -5.29e-4,0.0202 -0.0021,0.0365 -0.0021,0.0589 v 21.87101 c 0,0.34698 0.01706,0.68538 0.05064,1.01545 0.03005,0.29242 0.125364,0.57404 0.257865,0.83612 0.382037,1.82067 1.252982,3.40853 2.628781,4.40645 1.528577,1.10873 3.336012,1.50947 5.041035,1.50947 h 16.201081 c 0.007,2e-5 0.0135,5e-5 0.0217,0 a 1.50015,1.50015 0 0 0 0.004,0 c 5.49442,-0.0557 9.96202,-1.98188 12.98628,-5.18935 0.0189,-0.0163 0.0379,-0.0318 0.0563,-0.0486 0.0494,-0.0452 0.10482,-0.0835 0.15038,-0.13281 a 1.50015,1.50015 0 0 0 0.0119,-0.014 c 0.0663,-0.0736 0.11921,-0.15732 0.1757,-0.23822 2.97663,-3.40998 4.35782,-7.98997 4.24987,-12.89844 -0.005,-5.87216 -1.8293,-9.59454 -5.18366,-12.66228 3.16323,-4.71459 3.89099,-10.99792 1.84381,-16.61914 -2.35579,-6.46866 -8.50555,-11.89471 -17.79064,-11.91762 -0.039,-1e-4 -0.0781,-5e-5 -0.11162,0 -0.0253,5e-5 -0.056,-9e-5 -0.0935,0 z m 57.986636,15.22026 c 0.73856,0 1.77886,0.25131 2.3611,0.66817 0.65215,0.4669 1.02164,0.84983 1.02164,2.39831 v 11.79514 10.92957 c 0,1.56267 -0.39023,2.38868 -0.86713,2.88458 -0.48181,0.50099 -1.14624,0.81287 -2.41019,0.81287 a 1.50015,1.50015 0 0 0 -0.0765,0.002 c -7.9e-4,3e-5 -10e-4,-2e-5 -0.002,0 -1.13599,0.0362 -1.74405,-0.22776 -2.21278,-0.709 -0.46189,-0.47422 -0.88263,-1.32082 -0.88263,-2.99051 v -10.92957 -11.79514 c 0,-1.4947 0.38451,-1.92981 1.002,-2.40037 0.55434,-0.42242 1.51835,-0.66559 2.06603,-0.66559 z m -120.742494,0.10594 h 4.017843 c 1.079066,0 1.491708,0.28606 1.952853,0.86092 0.427429,0.53284 0.732919,1.43664 0.728636,2.35387 -0.0043,0.91774 -0.31863,1.83033 -0.75396,2.37091 -0.468188,0.58139 -0.884414,0.86351 -1.927529,0.86351 h -4.017843 z m 70.738314,0 h 2.959 c 1.55754,0 2.45901,0.45417 3.03702,1.03662 0.57802,0.58246 0.86544,1.37161 0.87333,2.21124 0.008,0.84537 -0.25725,1.60935 -0.81648,2.17558 -0.55923,0.56623 -1.46643,1.02577 -3.09387,1.02577 h -2.959 z m -115.067907,16.49976 0.71882,2.46859 h -1.456759 z m 115.065847,6.01359 h 6.08232 c 1.09281,0.0168 1.49289,0.3034 1.93321,0.86506 0.40711,0.51929 0.69657,1.4055 0.68368,2.31252 -0.0129,0.90606 -0.33204,1.82083 -0.75189,2.3518 -0.45297,0.57285 -0.81391,0.81442 -1.72238,0.81442 h -6.22494 z m -70.849424,15.17478 c 2.64e-4,0.008 -0.0021,0.22633 -0.0021,0.22583 l -0.0021,0.006 c 5.29e-4,-0.0446 0.0037,-0.23581 0.0041,-0.23151 z m 134.142714,1.82522 v 0.004 c 3e-5,0 -0.0167,-0.002 -0.0217,-0.002 0,0 0.0196,-0.002 0.0217,-0.002 z" />
    <path
       id="path1768"
       style="color:#000000;font-style:normal;font-variant:normal;font-weight:normal;font-stretch:normal;font-size:medium;line-height:normal;font-family:sans-serif;font-variant-ligatures:normal;font-variant-position:normal;font-variant-caps:normal;font-variant-numeric:normal;font-variant-alternates:normal;font-variant-east-asian:normal;font-feature-settings:normal;font-variation-settings:normal;text-indent:0;text-align:start;text-decoration:none;text-decoration-line:none;text-decoration-style:solid;text-decoration-color:#000000;letter-spacing:normal;word-spacing:normal;text-transform:none;writing-mode:lr-tb;direction:ltr;text-orientation:mixed;dominant-baseline:auto;baseline-shift:baseline;text-anchor:start;white-space:normal;shape-padding:0;shape-margin:0;inline-size:0;clip-rule:nonzero;display:inline;overflow:visible;visibility:visible;isolation:auto;mix-blend-mode:normal;color-interpolation:sRGB;color-interpolation-filters:linearRGB;solid-color:#000000;solid-opacity:1;vector-effect:none;fill:#1a1a1a;fill-opacity:1;fill-rule:nonzero;stroke:none;stroke-width:11.3386;stroke-linecap:butt;stroke-linejoin:round;stroke-miterlimit:4;stroke-dasharray:none;stroke-dashoffset:0;stroke-opacity:1;color-rendering:auto;image-rendering:auto;shape-rendering:auto;text-rendering:auto;enable-background:accumulate;stop-color:#000000"
       d="m 870.25391,-5.6699219 v 0.00195 c -0.36179,-6.212e-4 -0.72282,0.033388 -1.07813,0.1015626 -39.07113,0.5630362 -71.18407,30.8987153 -71.62695,72.0996093 -2e-5,0.0078 -2e-5,0.01563 0,0.02344 -3e-4,0.04498 -3e-4,0.0644 0,0.109375 v 44.542965 42.10547 c -8e-5,0.034 -2.3e-4,0.0682 0,0.0977 -8e-5,0.0169 -8e-5,0.0339 0,0.0508 0.35074,21.34636 8.15562,37.95525 19.00781,49.54102 16.18209,17.29099 37.91853,23.81253 53.29883,23.8125 15.85069,0 37.79539,-6.52739 54.03515,-23.6875 l -3.99414,-3.99414 c -2e-5,-3e-5 0,-0.004 0,-0.006 h 0.002 l 4.15429,3.85937 c 0.15081,-0.16252 0.26823,-0.3512 0.40625,-0.52344 l 0.63477,-0.83593 c 10.46513,-11.6973 17.85742,-28.10759 17.85742,-49.11133 v -0.0137 c 2e-5,-0.008 2e-5,-0.0156 0,-0.0234 l -0.18555,-41.31641 -0.20703,-44.439452 C 943.00764,24.921674 909.47384,-5.6699219 870.25391,-5.6699219 Z m -623.96485,0.796875 c -0.03,4.137e-4 -0.0599,0.00106 -0.0898,0.00195 -0.0906,0.00174 -0.1811,0.00564 -0.27149,0.011719 -0.30096,0.018898 -0.58769,0.1215439 -0.88476,0.1699219 -15.89601,0.9183874 -29.91609,11.0278804 -34.73438,27.867187 l -24.55664,85.531249 -22.34375,77.83008 c -4.3e-4,0.001 -0.002,0.004 -0.002,0.008 l -0.0137,0.0488 c -0.0216,0.0726 -0.0436,0.15218 -0.0723,0.26368 -0.003,0.0104 -0.005,0.0208 -0.008,0.0312 -0.76598,3.04408 -1.04635,5.87403 -1.12305,8.46094 -0.0806,0.49398 -0.13485,0.99251 -0.13281,1.49414 5.9e-4,0.015 0.001,0.03 0.002,0.0449 0.009,0.73904 0.11381,1.47268 0.30079,2.18946 1.19022,15.40803 12.80577,25.02829 24.00195,26.0957 0.38685,0.0382 0.77436,0.0524 1.16211,0.041 0.0117,4e-5 0.0234,4e-5 0.0352,0 3.93972,-0.14098 10.5463,1.29368 18.00391,-1.86328 7.49126,-3.17122 12.78509,-10.62751 16.9668,-22.35157 0.0832,-0.1576 0.18032,-0.30841 0.2539,-0.4707 0.007,-0.0162 0.0144,-0.0325 0.0215,-0.0488 0.0374,-0.0847 0.0666,-0.17397 0.10156,-0.25976 0.11303,-0.25061 0.20768,-0.5091 0.2832,-0.77344 0.001,-0.004 0.003,-0.008 0.004,-0.0117 0.15749,-0.47429 0.29979,-0.9202 0.43164,-1.33398 0.004,-0.0104 0.008,-0.0208 0.0117,-0.0312 0.032,-0.0858 0.062,-0.17247 0.0898,-0.25977 l 3.16016,-9.9668 h 39.08398 l 3.21875,10.64844 c 0.01,0.0313 0.0193,0.0626 0.0293,0.0937 l 0.0312,0.0957 0.16992,0.53516 -0.043,-0.19922 c 0.0864,0.3913 0.21409,0.77234 0.38086,1.13672 l -0.22851,-0.58984 c 0.15926,0.49502 0.37414,0.96778 0.61523,1.42773 3.78964,11.02105 9.22822,18.40076 16.45899,21.96289 7.1915,3.54274 14.16261,2.86095 18.73828,2.66211 13.13276,-0.0112 25.90991,-10.61492 27.17578,-26.4375 0.20866,-0.76526 0.32497,-1.55513 0.32812,-2.35156 v -0.01 c 2e-5,-0.0113 2e-5,-0.0238 0,-0.0352 -6.7e-4,-0.74502 -0.10015,-1.48334 -0.28125,-2.20313 -0.1677,-2.85165 -0.65612,-5.9782 -1.66406,-9.26172 -0.0384,-0.27209 -0.0965,-0.54103 -0.17383,-0.80469 L 308.10742,108.62109 282.61914,23.087891 c -0.006,-0.01957 -0.0129,-0.0391 -0.0195,-0.05859 -0.006,-0.02044 -0.0133,-0.04012 -0.0195,-0.06055 l 0.0195,0.05469 c -0.0232,-0.07407 -0.048,-0.147652 -0.0742,-0.220704 C 277.12152,5.4345743 262.62981,-4.3710856 246.75586,-4.8613281 l -0.004,-0.00195 c -0.0872,-0.00265 -0.17452,1.511e-4 -0.26172,0 -0.0273,-8.489e-4 -0.0547,-0.0015 -0.082,-0.00195 -0.007,-1.12e-5 -0.013,-1.12e-5 -0.0195,0 -0.0332,-9.427e-4 -0.0664,-0.00159 -0.0996,-0.00195 z m 136.66406,0.00195 c -0.76672,0.0011 -1.5189,0.1615157 -2.25976,0.3535157 -6.69267,0.4014236 -13.47777,2.3956026 -18.75781,7.2636719 -5.86506,5.4075212 -9.14453,13.5632253 -9.14453,22.9355473 v 85.527342 83.45899 c 0,0.89091 0.04,1.72752 0.0879,2.50976 0.003,0.0722 0.003,0.15803 0.008,0.22266 v 0.006 c 0.0695,1.00811 0.353,1.98372 0.74609,2.91016 1.12302,7.40016 4.17193,13.94528 9.41016,18.2539 5.77662,4.75151 12.96938,6.64453 19.91015,6.64453 6.44907,0 13.44906,-1.79615 19.29688,-6.38476 5.23477,-4.10752 8.5202,-10.54728 9.83203,-17.99805 0.0404,-0.0801 0.0831,-0.15633 0.11719,-0.22851 0.018,-0.0369 0.0356,-0.074 0.0527,-0.11133 0.10643,-0.23811 0.19905,-0.48377 0.28711,-0.73828 0.005,-0.01 0.0104,-0.0195 0.0156,-0.0293 0.11031,-0.32482 0.19412,-0.65741 0.26758,-0.99219 0.006,-0.0234 -8.9e-4,0.01 0.0117,-0.041 0.0285,-0.11702 0.0532,-0.23492 0.0742,-0.35352 v -0.002 c 0.0296,-0.16625 0.0518,-0.33373 0.0664,-0.50196 0.009,-0.0703 0.0217,-0.13522 0.0293,-0.20703 0.009,-0.0637 0.0167,-0.12747 0.0234,-0.1914 0.0665,-0.92168 0.0879,-1.84303 0.0879,-2.76758 v -33.96485 l 28.22071,41.07422 0.008,0.0137 c 0.014,0.0227 0.0224,0.0374 0.0371,0.0586 0.0193,0.0275 0.0388,0.0549 0.0586,0.082 l 4.00977,5.83203 c 10.30503,15.14302 25.62501,20.38579 38.36328,17.02149 12.57183,-3.32039 22.36573,-13.93394 23.79883,-27.00196 0.77363,-7.05505 -1.14006,-14.65292 -6.00977,-21.23047 -0.0772,-0.10364 -0.15803,-0.20461 -0.24218,-0.30273 l 0.0723,0.082 -33.68164,-46.0332 c 4.46402,-2.64798 9.65553,-6.40641 14.80664,-11.89258 l 0.42188,-0.39258 c 0.2753,-0.24302 0.56137,-0.4785 0.80468,-0.75195 9.64589,-10.8412 18.00391,-27.779158 18.00391,-51.820317 0,-35.800176 -30.51841,-70.3124999 -73.89258,-70.3124999 H 382.96125 Z M 557.10547,-4.49805 v 0.00391 c -0.58055,4.261e-4 -1.15759,0.090012 -1.71094,0.265625 h -0.008 c -0.0497,0.016242 -0.0992,0.03317 -0.14844,0.050781 -0.27927,0.059339 -0.5691,0.055208 -0.8418,0.140625 -6.19572,0.4972725 -12.5329,2.4866416 -17.59765,7.078125 -5.79722,5.2555465 -9.36719,13.279718 -9.36719,22.640625 v 85.304689 c -0.002,0.0767 -0.008,0.13837 -0.008,0.22265 v 83.45899 c 0,0.81743 0.0352,1.56243 0.0801,2.27344 0.003,0.19918 0.01,0.34626 0.0156,0.44336 0.002,0.0293 0.005,0.0586 0.008,0.0879 0.0711,0.91884 0.36675,1.79546 0.70899,2.65039 1.17843,7.62916 4.53743,14.26529 9.93555,18.55078 5.86208,4.65373 13.01015,6.54101 19.8125,6.54101 6.80036,0 13.98309,-1.87521 19.92382,-6.48242 5.58569,-4.33189 9.26277,-11.03869 10.42188,-18.89648 0.005,-0.0128 0.0111,-0.0242 0.0156,-0.0371 l 0.008,-0.0312 c 0.0875,-0.24869 0.15788,-0.49545 0.2207,-0.73828 0.005,-0.01 0.0104,-0.0195 0.0156,-0.0293 0.0657,-0.26041 0.12012,-0.52586 0.16211,-0.78906 3e-5,-0.0104 3e-5,-0.0208 0,-0.0312 0.0314,-0.20334 0.057,-0.40809 0.0742,-0.61328 v -0.0293 c 9.1e-4,-0.0616 0.0115,-0.84598 0.0156,-0.75977 0.002,0.0469 0.005,0.1477 0.006,0.24219 10e-4,-0.0741 0.008,-0.17352 0.008,-0.23437 0.0414,-0.67544 0.082,-1.36966 0.082,-2.11914 V 111.20508 24.882812 c 0,-9.206135 -4.20371,-17.0012353 -10.23242,-21.9394526 -5.92455,-4.8528378 -13.24571,-7.1589466 -20.37305,-7.4257813 -0.0319,-2.692e-4 -0.0638,-2.692e-4 -0.0957,0 h -0.20703 c -0.26412,-0.00756 -0.55109,-0.015625 -0.92383,-0.015625 z M 25.292969,-4.0742188 c -0.47851,0.00112 -0.954954,0.062806 -1.417969,0.1835938 -0.05948,0.014015 -0.118735,0.028991 -0.177734,0.044922 -0.303648,0.054047 -0.616678,0.048151 -0.914063,0.1328125 -0.02872,0.00756 -0.06104,0.00807 -0.08984,0.015625 -6.176927,0.4014614 -12.661143,2.0786364 -18.0781246,6.4511718 -6.2321197,5.0305134 -10.28125,13.1965847 -10.28125,22.9277347 v 85.527339 c -6.308e-4,0.0488 -6.308e-4,0.0977 0,0.14649 0.00135,0.0503 0.00359,0.093 0.00586,0.14062 v 83.17188 c 0,0.90387 0.030796,1.82727 0.097656,2.76172 -7.58e-5,0.0169 -7.58e-5,0.0339 0,0.0508 4.271e-4,0.004 0.0051,0.008 0.00586,0.0156 1.927e-4,0.002 -1.928e-4,0.004 0,0.008 0.08194,1.00785 0.3969672,1.97338 0.8046875,2.90039 1.2506267,7.67149 4.66759249,14.30752 10.1503906,18.5 5.9958165,4.5846 13.1906815,6.31836 19.8945315,6.31836 6.588249,0 13.625196,-1.80617 19.384765,-6.48828 5.206511,-4.23243 8.305283,-10.75875 9.478516,-18.22657 0.457206,-1.01416 0.749098,-2.09122 0.8125,-3.20312 0.05628,-0.98026 0.05207,-1.78062 0.07422,-2.44336 0.0031,-0.0644 0.005,-0.12888 0.0059,-0.19336 V 140.5293 h 24.78125 v 54.13867 c 0,0.89083 0.0205,1.79923 0.08203,2.72461 v 0.008 c 0.06799,0.9925 0.368675,1.94648 0.751953,2.86328 1.180672,7.65691 4.468601,14.29481 9.826172,18.54492 5.842179,4.63461 12.91622,6.41407 19.4961,6.41407 6.58027,0 13.64615,-1.7795 19.48828,-6.41407 5.23474,-4.15268 8.41298,-10.61877 9.66992,-18.03515 0.51705,-1.05642 0.82829,-2.20751 0.9082,-3.38086 10e-6,-0.005 10e-6,-0.0104 0,-0.0156 0.0593,-0.90111 0.0879,-1.80261 0.0879,-2.70898 V 111.20898 26.074219 c 0,-9.63481 -3.8262,-17.7607425 -9.81835,-22.9277346 -5.91105,-5.0971087 -13.32368,-7.2207032 -20.34375,-7.2207032 -7.0364,0 -14.495228,1.9254997 -20.441415,6.96875 -6.0377,5.1208819 -9.71289,13.2327288 -9.71289,22.7871098 v 54.53125 h -24.375 V 25.283203 c 0,-9.369902 -3.929733,-17.3108387 -9.914063,-22.3222655 -5.88294,-4.9265386 -13.21505,-7.0308476 -20.220703,-7.0351563 z m 625.001951,1.5878907 c -7.01104,0 -14.34438,2.10212908 -20.23437,7.0332031 -5.986,5.0115402 -9.91211,12.954581 -9.91211,22.324219 v 84.035156 0.0801 c -0.002,0.0763 -0.008,0.13799 -0.008,0.22265 v 82.66211 c 0,1.31139 0.0645,2.59039 0.19141,3.83789 0.11358,1.10521 0.47382,2.16962 0.97461,3.16016 1.44392,6.88127 4.73568,12.88263 9.93555,16.6543 5.7773,4.19047 12.60855,5.70508 19.05273,5.70508 h 61.23242 c 0.0265,7e-5 0.051,1.8e-4 0.082,0 0.005,1e-5 0.0104,1e-5 0.0156,0 20.76631,-0.21052 37.65172,-7.49056 49.08203,-19.61329 0.0714,-0.0616 0.14335,-0.12009 0.21289,-0.18359 0.18671,-0.17083 0.39617,-0.31558 0.56836,-0.50195 0.0151,-0.0175 0.03,-0.0351 0.0449,-0.0527 0.25059,-0.27817 0.45056,-0.59462 0.66407,-0.90039 11.25025,-12.88811 16.4705,-30.1983 16.0625,-48.75 -0.0189,-22.19399 -6.91391,-36.26281 -19.5918,-47.85742 11.95551,-17.818922 14.70612,-41.566943 6.96875,-62.812499 -8.90381,-24.448479 -32.14698,-44.9563801 -67.24024,-45.0429691 -0.1474,-3.78e-4 -0.29514,-1.89e-4 -0.42187,0 -0.0956,1.89e-4 -0.21178,-3.402e-4 -0.35352,0 z M 869.45703,55.039062 c 2.79141,0 6.72324,0.949857 8.92383,2.525391 2.46482,1.764662 3.86133,3.21193 3.86133,9.064453 v 44.580074 41.3086 c 0,5.90615 -1.47489,9.02807 -3.27735,10.90234 -1.82101,1.89351 -4.33224,3.07227 -9.10937,3.07227 -0.0964,1.5e-4 -0.19279,0.003 -0.28906,0.008 -0.003,1.1e-4 -0.004,-1.1e-4 -0.008,0 -4.2935,0.13682 -6.5917,-0.86083 -8.36328,-2.67969 -1.74572,-1.79233 -3.33594,-4.99209 -3.33593,-11.30273 v -41.3086 -44.580074 c 0,-5.64926 1.45325,-7.293771 3.7871,-9.072265 2.09515,-1.596548 5.73866,-2.515625 7.8086,-2.515625 z m -456.34961,0.400391 h 15.18555 c 4.07836,0 5.63795,1.081207 7.38086,3.253906 1.61548,2.013884 2.77009,5.429789 2.7539,8.896485 -0.0163,3.468623 -1.20427,6.9178 -2.84961,8.960937 -1.76953,2.19738 -3.34267,3.263672 -7.28515,3.263672 h -15.18555 z m 267.35742,0 h 11.1836 c 5.88676,0 9.29391,1.716583 11.47851,3.917969 2.18465,2.201423 3.27096,5.184017 3.30078,8.357422 0.0302,3.195099 -0.97231,6.082574 -3.08593,8.222656 -2.11363,2.140082 -5.54241,3.876953 -11.69336,3.876953 h -11.1836 z M 245.5625,139.7716 l 2.7168,-12.64074 h -5.50586 z m 434.89453,0.7577 h 22.98828 c 4.13031,0.0635 5.64244,1.14672 7.30664,3.26953 1.53869,1.96267 2.63271,5.31213 2.58399,8.74023 -0.0488,3.42448 -1.25496,6.88186 -2.8418,8.88867 -1.71201,2.16511 -3.07618,3.07813 -6.50976,3.07813 h -23.52735 z m -267.77734,57.35351 c 0.001,0.0299 -0.008,0.8554 -0.008,0.85352 l -0.008,0.0215 c 0.002,-0.16857 0.0141,-0.89125 0.0156,-0.875 z m 506.99609,6.89844 v 0.0156 c 1.1e-4,0 -0.0631,-0.008 -0.082,-0.008 0,0 0.0741,-0.008 0.082,-0.008 z"
       transform="matrix(0.26458333,0,0,0.26458333,-80.328747,434.00377)" />
    <path
       id="path1768-5"
       style="color:#000000;font-style:normal;font-variant:normal;font-weight:normal;font-stretch:normal;font-size:medium;line-height:normal;font-family:sans-serif;font-variant-ligatures:normal;font-variant-position:normal;font-variant-caps:normal;font-variant-numeric:normal;font-variant-alternates:normal;font-variant-east-asian:normal;font-feature-settings:normal;font-variation-settings:normal;text-indent:0;text-align:start;text-decoration:none;text-decoration-line:none;text-decoration-style:solid;text-decoration-color:#000000;letter-spacing:normal;word-spacing:normal;text-transform:none;writing-mode:lr-tb;direction:ltr;text-orientation:mixed;dominant-baseline:auto;baseline-shift:baseline;text-anchor:start;white-space:normal;shape-padding:0;shape-margin:0;inline-size:0;clip-rule:nonzero;display:inline;overflow:visible;visibility:visible;isolation:auto;mix-blend-mode:normal;color-interpolation:sRGB;color-interpolation-filters:linearRGB;solid-color:#000000;solid-opacity:1;vector-effect:none;fill:#1a1a1a;fill-opacity:1;fill-rule:nonzero;stroke:none;stroke-width:11.3386;stroke-linecap:butt;stroke-linejoin:round;stroke-miterlimit:4;stroke-dasharray:none;stroke-dashoffset:0;stroke-opacity:1;color-rendering:auto;image-rendering:auto;shape-rendering:auto;text-rendering:auto;enable-background:accumulate;stop-color:#000000"
       d="m 880.25391,-5.6738281 v 0.00391 0.00195 a 5.6698583,5.6698583 0 0 0 -1.07813,0.1015626 C 840.10465,-5.00337 807.99171,25.332309 807.54883,66.533203 a 5.6698583,5.6698583 0 0 0 0,0.02344 c -3e-4,0.04498 -3e-4,0.0644 0,0.109375 v 44.542962 42.10547 c -8e-5,0.034 -2.3e-4,0.0682 0,0.0977 a 5.6698583,5.6698583 0 0 0 0,0.0488 c 0.35074,21.34635 8.15562,37.95521 19.00781,49.54101 16.18209,17.29096 37.91853,23.8125 53.29883,23.8125 15.85069,0 37.79539,-6.52738 54.03515,-23.6875 l -3.99414,-3.99414 v -0.006 h 0.002 l 4.15429,3.85938 c 0.15081,-0.16252 0.26834,-0.35113 0.40625,-0.52344 l 0.63477,-0.83594 c 10.4651,-11.69729 17.85742,-28.10758 17.85742,-49.11133 V 152.5 a 5.6698583,5.6698583 0 0 0 0,-0.0234 l -0.18555,-41.3164 -0.20703,-44.439457 c 0.44897,-41.8029 -33.08476,-72.3945711 -72.30472,-72.3945711 z m -623.96485,0.8007812 a 5.6698583,5.6698583 0 0 0 -0.0898,0.00195 5.6698583,5.6698583 0 0 0 -0.27149,0.011719 c -0.30096,0.018898 -0.58769,0.1215439 -0.88476,0.1699219 -15.89601,0.9183874 -29.91609,11.0278804 -34.73438,27.867187 l -24.55664,85.531249 -22.34375,77.83008 c -4.2e-4,9.9e-4 -0.002,0.004 -0.002,0.008 l -0.0137,0.0488 c -0.0216,0.0726 -0.0436,0.15218 -0.0723,0.26368 a 5.6698583,5.6698583 0 0 0 -0.008,0.0293 c -0.76598,3.04411 -1.04635,5.874 -1.12305,8.46094 -0.0806,0.49398 -0.13485,0.99252 -0.13281,1.49414 a 5.6698583,5.6698583 0 0 0 0.002,0.0449 c 0.009,0.73905 0.11381,1.47267 0.30079,2.18945 1.19021,15.40801 12.80577,25.02833 24.00195,26.09571 0.38685,0.0382 0.77435,0.0523 1.16211,0.041 a 5.6698583,5.6698583 0 0 0 0.0352,0 c 3.93972,-0.14097 10.5463,1.29369 18.00391,-1.86328 7.49126,-3.17121 12.78509,-10.6275 16.9668,-22.35156 0.0832,-0.15761 0.18032,-0.30841 0.2539,-0.4707 a 5.6698583,5.6698583 0 0 0 0.0215,-0.0488 c 0.0374,-0.0847 0.0666,-0.17202 0.10156,-0.25781 a 5.6698583,5.6698583 0 0 0 0.2832,-0.77539 5.6698583,5.6698583 0 0 0 0.004,-0.01 c 0.15749,-0.47429 0.29979,-0.9202 0.43164,-1.33398 a 5.6698583,5.6698583 0 0 0 0.0117,-0.0312 5.6698583,5.6698583 0 0 0 0.0898,-0.25977 l 3.16016,-9.9668 h 39.08398 l 3.21875,10.64844 a 5.6698583,5.6698583 0 0 0 0.0293,0.0937 l 0.0312,0.0957 0.16992,0.53516 -0.043,-0.19922 a 5.6698583,5.6698583 0 0 0 0.35352,1.07422 c 0.12472,0.30589 0.26046,0.60736 0.41406,0.90039 3.78964,11.02107 9.22822,18.40076 16.45899,21.96289 7.1915,3.54274 14.16261,2.86095 18.73828,2.66211 13.13276,-0.0113 25.90991,-10.61492 27.17578,-26.4375 0.20867,-0.76528 0.32495,-1.55514 0.32812,-2.35156 a 5.6698583,5.6698583 0 0 0 0,-0.0117 c 2e-5,-0.0113 2e-5,-0.0219 0,-0.0332 -6.7e-4,-0.74502 -0.10017,-1.48332 -0.28125,-2.20313 -0.16769,-2.85165 -0.65612,-5.97822 -1.66406,-9.26172 a 5.6698583,5.6698583 0 0 0 -0.17383,-0.80469 L 318.10742,108.62109 292.61914,23.087891 a 5.6698583,5.6698583 0 0 0 -0.0195,-0.05859 c -0.006,-0.0189 -0.0131,-0.04014 -0.0195,-0.06055 l 0.0195,0.05469 a 5.6698583,5.6698583 0 0 0 -0.0742,-0.220704 C 287.12147,5.4345958 272.62981,-4.3710856 256.75586,-4.8613281 a 5.6698583,5.6698583 0 0 0 -0.004,-0.00195 c -0.0872,-0.00265 -0.17452,1.511e-4 -0.26172,0 a 5.6698583,5.6698583 0 0 0 -0.082,-0.00195 5.6698583,5.6698583 0 0 0 -0.0195,0 5.6698583,5.6698583 0 0 0 -0.0996,-0.00195 z m 136.66406,0.00195 c -0.76672,0.0011 -1.5189,0.1615157 -2.25976,0.3535157 -6.69267,0.4014236 -13.47777,2.3956026 -18.75781,7.2636719 -5.86506,5.4075212 -9.14453,13.5632253 -9.14453,22.9355473 v 85.527342 83.45899 c 0,0.89091 0.04,1.72752 0.0879,2.50976 0.003,0.0722 0.003,0.15803 0.008,0.22266 a 5.6698583,5.6698583 0 0 0 0,0.008 c 0.0695,1.00812 0.35301,1.98372 0.74609,2.91016 1.12302,7.40016 4.17193,13.94528 9.41016,18.25391 5.77662,4.7515 12.96939,6.64453 19.91015,6.64453 6.44907,0 13.44906,-1.79616 19.29688,-6.38477 5.23477,-4.10751 8.5202,-10.54727 9.83203,-17.99805 0.0404,-0.0801 0.0831,-0.15632 0.11719,-0.22851 a 5.6698583,5.6698583 0 0 0 0.0527,-0.11133 c 0.10643,-0.23811 0.19905,-0.48377 0.28711,-0.73828 a 5.6698583,5.6698583 0 0 0 0.0156,-0.0312 c 0.11032,-0.32466 0.1941,-0.6574 0.26758,-0.99219 0.006,-0.0227 -8.9e-4,0.0115 0.0117,-0.041 a 5.6698583,5.6698583 0 0 0 0.0742,-0.35352 v -0.002 a 5.6698583,5.6698583 0 0 0 0.0664,-0.50196 c 0.009,-0.0703 0.0214,-0.13522 0.0293,-0.20703 a 5.6698583,5.6698583 0 0 0 0.0234,-0.1914 c 0.0665,-0.92168 0.0879,-1.84303 0.0879,-2.76758 v -33.96485 l 28.22071,41.07422 0.008,0.0156 c 0.014,0.0227 0.0224,0.0378 0.0371,0.0586 a 5.6698583,5.6698583 0 0 0 0.0586,0.082 l 4.00977,5.83203 c 10.30503,15.14302 25.62501,20.3858 38.36328,17.02149 12.57183,-3.32039 22.36573,-13.93393 23.79883,-27.00195 0.77363,-7.05502 -1.14006,-14.65292 -6.00977,-21.23047 a 5.6698583,5.6698583 0 0 0 -0.24218,-0.30274 l 0.0723,0.082 -33.68164,-46.0332 c 4.46402,-2.64797 9.65553,-6.4064 14.80664,-11.89258 l 0.42188,-0.39258 c 0.2753,-0.24302 0.56137,-0.4785 0.80468,-0.75195 9.64589,-10.84119 18.00391,-27.779155 18.00391,-51.820314 0,-35.800176 -30.51841,-70.3124997 -73.89258,-70.3124997 h -44.93359 a 5.6698583,5.6698583 0 0 0 -0.008,0 z M 567.10547,-4.49805 v 0.00391 a 5.6698583,5.6698583 0 0 0 -1.71094,0.265625 5.6698583,5.6698583 0 0 0 -0.008,0 5.6698583,5.6698583 0 0 0 -0.14844,0.050781 c -0.27927,0.059339 -0.5691,0.055208 -0.8418,0.140625 -6.19572,0.4972725 -12.5329,2.4866416 -17.59765,7.078125 -5.79722,5.2555465 -9.36719,13.279718 -9.36719,22.640625 v 85.304689 c -0.002,0.0767 -0.008,0.13837 -0.008,0.22265 v 83.45899 c 0,0.81743 0.0351,1.56243 0.0801,2.27344 0.003,0.19918 0.0103,0.34618 0.0156,0.44336 a 5.6698583,5.6698583 0 0 0 0.008,0.0879 c 0.0711,0.91884 0.36676,1.79546 0.70899,2.65039 1.17843,7.62912 4.53742,14.26529 9.93555,18.55078 5.86208,4.65373 13.01015,6.54101 19.8125,6.54101 6.80036,0 13.98309,-1.87517 19.92382,-6.48242 5.58569,-4.33187 9.26277,-11.03869 10.42188,-18.89648 0.005,-0.0113 0.0111,-0.022 0.0156,-0.0371 l 0.008,-0.0312 c 0.0875,-0.24869 0.15788,-0.49545 0.2207,-0.73828 A 5.6698583,5.6698583 0 0 0 598.58984,199 c 0.0657,-0.26041 0.12012,-0.52586 0.16211,-0.78906 a 5.6698583,5.6698583 0 0 0 0,-0.0312 c 0.0314,-0.20334 0.057,-0.40809 0.0742,-0.61328 v -0.0293 c 9.1e-4,-0.0616 0.0115,-0.84598 0.0156,-0.75977 0.002,0.0469 0.005,0.1477 0.006,0.24219 9.9e-4,-0.0741 0.008,-0.17352 0.008,-0.23437 0.0414,-0.67544 0.082,-1.36966 0.082,-2.11914 V 111.20508 24.882812 c 0,-9.206135 -4.20371,-17.0012353 -10.23242,-21.9394526 -5.92455,-4.8528378 -13.24571,-7.1589466 -20.37305,-7.4257813 a 5.6698583,5.6698583 0 0 0 -0.0957,0 h -0.20703 c -0.26412,-0.00756 -0.55109,-0.015625 -0.92383,-0.015625 z m -531.785158,0.421875 -0.02734,0.00195 a 5.6698583,5.6698583 0 0 0 -1.417972,0.1836 5.6698583,5.6698583 0 0 0 -0.177734,0.044922 c -0.303496,0.054047 -0.61669,0.048151 -0.914063,0.1328125 -0.03024,0.00756 -0.06074,0.00807 -0.08984,0.015625 C 26.516402,-3.2958042 20.032204,-1.6186292 14.615234,2.7539062 8.3830882,7.7844196 4.3339844,15.950491 4.3339844,25.681641 v 85.527339 a 5.6698583,5.6698583 0 0 0 0,0.14649 c 0.00132,0.0503 0.00384,0.093 0.00781,0.14062 v 83.17188 c 0,0.90387 0.030381,1.82727 0.097656,2.76172 a 5.6698583,5.6698583 0 0 0 0,0.0508 c 4.158e-4,0.004 0.00403,0.008 0.00781,0.0156 1.89e-4,0.002 -1.89e-4,0.004 0,0.008 0.082016,1.00785 0.3969899,1.97338 0.8046875,2.90039 1.2506457,7.67149 4.6675736,14.30752 10.1503911,18.5 5.995804,4.5846 13.19067,6.31836 19.894531,6.31836 6.588246,0 13.625219,-1.80617 19.384766,-6.48828 5.206526,-4.23243 8.305274,-10.75875 9.478515,-18.22657 0.45721,-1.01416 0.74908,-2.09122 0.8125,-3.20312 0.05631,-0.98026 0.0523,-1.78062 0.07422,-2.44336 a 5.6698583,5.6698583 0 0 0 0.0059,-0.19531 v -54.13868 h 24.78125 v 54.13868 c 0,0.89083 0.01891,1.79923 0.08203,2.7246 a 5.6698583,5.6698583 0 0 0 0,0.008 c 0.06803,0.9925 0.368482,1.94648 0.751953,2.86328 1.180649,7.65691 4.468616,14.2948 9.826166,18.54492 5.84217,4.63461 12.91625,6.41406 19.49609,6.41406 6.58028,0 13.64616,-1.77949 19.48829,-6.41406 5.23472,-4.15268 8.41298,-10.61878 9.66992,-18.03516 0.51705,-1.05645 0.82829,-2.2075 0.9082,-3.38086 a 5.6698583,5.6698583 0 0 0 0,-0.0156 c 0.0593,-0.90111 0.0879,-1.80262 0.0879,-2.70898 V 111.20703 26.072266 c 0,-9.63481 -3.82426,-17.7607426 -9.81641,-22.9277348 -5.91106,-5.0971086 -13.32564,-7.2207031 -20.3457,-7.2207031 -7.03641,0 -14.49522,1.9254996 -20.441399,6.96875 C 93.503334,8.01346 89.828125,16.125306 89.828125,25.679688 v 54.53125 h -24.375 V 25.28125 c 0,-9.369902 -3.929748,-17.3108389 -9.914063,-22.3222656 -5.882948,-4.9265386 -13.213093,-7.0308476 -20.21875,-7.0351563 z m 624.974608,1.5898438 c -7.01104,0 -14.34438,2.10212908 -20.23437,7.0332031 -5.986,5.0115402 -9.91211,12.9545811 -9.91211,22.3242191 v 84.035159 0.0801 c -0.002,0.0763 -0.008,0.13799 -0.008,0.22265 v 82.66211 c 0,1.31142 0.0645,2.59039 0.19141,3.83789 0.11358,1.10521 0.47382,2.16962 0.97461,3.16016 1.44392,6.88127 4.73568,12.88263 9.93555,16.6543 5.7773,4.19047 12.60855,5.70508 19.05273,5.70508 h 61.23242 c 0.0265,7e-5 0.051,1.8e-4 0.082,0 a 5.6698583,5.6698583 0 0 0 0.0156,0 c 20.76631,-0.21052 37.65176,-7.49056 49.08203,-19.61329 0.0714,-0.0616 0.14335,-0.12009 0.21289,-0.18359 0.18671,-0.17083 0.39617,-0.31558 0.56836,-0.50195 a 5.6698583,5.6698583 0 0 0 0.0449,-0.0527 c 0.25059,-0.27817 0.45056,-0.59462 0.66407,-0.90039 11.25025,-12.88811 16.4705,-30.1983 16.0625,-48.75 -0.0189,-22.19399 -6.91391,-36.26281 -19.5918,-47.85742 11.95551,-17.818925 14.70612,-41.566946 6.96875,-62.812502 -8.90377,-24.448479 -32.14698,-44.9563802 -67.24024,-45.0429692 -0.1474,-3.78e-4 -0.29518,-1.89e-4 -0.42187,0 -0.0956,1.89e-4 -0.21178,-3.402e-4 -0.35352,0 z M 879.45703,55.039062 c 2.79141,0 6.72324,0.949857 8.92383,2.525391 2.46482,1.764662 3.86133,3.21193 3.86133,9.064453 v 44.580074 41.3086 c 0,5.90615 -1.47489,9.02807 -3.27735,10.90234 -1.82101,1.89351 -4.33224,3.07227 -9.10937,3.07227 a 5.6698583,5.6698583 0 0 0 -0.28906,0.008 c -0.003,1.1e-4 -0.004,-8e-5 -0.008,0 -4.2935,0.13682 -6.5917,-0.86083 -8.36328,-2.67969 -1.74572,-1.79233 -3.33593,-4.99209 -3.33593,-11.30273 v -41.3086 -44.580074 c 0,-5.64926 1.45328,-7.293771 3.7871,-9.072265 2.09515,-1.596548 5.73863,-2.515625 7.8086,-2.515625 z m -456.34961,0.400391 h 15.18555 c 4.07836,0 5.63795,1.081207 7.38086,3.253906 1.61548,2.013884 2.77009,5.429789 2.7539,8.896485 -0.0163,3.468623 -1.20426,6.9178 -2.84961,8.960937 -1.76952,2.19738 -3.34267,3.263672 -7.28515,3.263672 h -15.18555 z m 267.35742,0 h 11.1836 c 5.88676,0 9.29391,1.716583 11.47851,3.917969 2.18465,2.201423 3.27096,5.184017 3.30078,8.357422 0.0302,3.195099 -0.97231,6.082574 -3.08593,8.222656 -2.11363,2.140082 -5.54241,3.876953 -11.69336,3.876953 h -11.1836 z m -434.90234,62.361327 2.7168,9.33008 h -5.50586 z m 434.89453,22.72852 h 22.98828 c 4.13031,0.0635 5.64244,1.14672 7.30664,3.26953 1.53869,1.96267 2.63271,5.31213 2.58399,8.74023 -0.0488,3.42448 -1.25496,6.88186 -2.8418,8.88867 -1.71201,2.16511 -3.07618,3.07813 -6.50976,3.07813 h -23.52735 z m -267.77734,57.35742 c 9e-4,0.0373 -0.008,0.85149 -0.008,0.84961 l -0.008,0.0234 c 0.002,-0.1682 0.0141,-0.88598 0.0156,-0.87305 z m 506.99609,6.89453 v 0.0156 c 1.1e-4,0 -0.0631,-0.008 -0.082,-0.008 0,0 0.0741,-0.008 0.082,-0.008 z"
       transform="matrix(0.26458333,0,0,0.26458333,-80.328747,434.00377)" />
    <g
       id="g1720"
       style="fill:#ffffff">
      <path
         id="path1625"
         style="color:#000000;font-style:normal;font-variant:normal;font-weight:normal;font-stretch:normal;font-size:medium;line-height:normal;font-family:sans-serif;font-variant-ligatures:normal;font-variant-position:normal;font-variant-caps:normal;font-variant-numeric:normal;font-variant-alternates:normal;font-variant-east-asian:normal;font-feature-settings:normal;font-variation-settings:normal;text-indent:0;text-align:start;text-decoration:none;text-decoration-line:none;text-decoration-style:solid;text-decoration-color:#000000;letter-spacing:normal;word-spacing:normal;text-transform:none;writing-mode:lr-tb;direction:ltr;text-orientation:mixed;dominant-baseline:auto;baseline-shift:baseline;text-anchor:start;white-space:normal;shape-padding:0;shape-margin:0;inline-size:0;clip-rule:nonzero;display:inline;overflow:visible;visibility:visible;isolation:auto;mix-blend-mode:normal;color-interpolation:sRGB;color-interpolation-filters:linearRGB;solid-color:#000000;solid-opacity:1;vector-effect:none;fill:#ffffff;fill-opacity:1;fill-rule:nonzero;stroke:none;stroke-width:1.807;stroke-linecap:butt;stroke-linejoin:round;stroke-miterlimit:4;stroke-dasharray:none;stroke-dashoffset:0;stroke-opacity:1;color-rendering:auto;image-rendering:auto;shape-rendering:auto;text-rendering:auto;enable-background:accumulate;stop-color:#000000"
         d="m 149.92602,434.00393 c -9.709,0 -17.62582,7.38094 -17.73587,17.61908 -2e-5,0.003 -2e-5,0.007 0,0.01 v 11.79515 11.1404 c -4e-5,0.005 -4e-5,0.009 0,0.014 0.0871,5.30149 1.98988,9.29619 4.62297,12.10727 3.94153,4.21162 9.38375,5.82651 13.00748,5.82651 3.77301,0 9.2827,-1.62657 13.23846,-5.82651 2.7e-4,-2.7e-4 0.002,2.6e-4 0.002,0 0.0386,-0.0416 0.0732,-0.0868 0.10335,-0.13488 2.62899,-2.84939 4.49637,-6.86908 4.49637,-12.19719 0,-10e-4 0,-0.002 0,-0.004 l -0.0491,-10.93008 -0.0548,-11.78119 c 0.11021,-10.26024 -8.02138,-17.63872 -17.63045,-17.63872 z m -0.21084,13.06277 c 1.0065,0 2.2859,0.26969 3.23442,0.94878 0.94853,0.6791 1.64848,1.7032 1.64848,3.61735 v 11.79515 10.92956 c 0,1.83236 -0.49418,3.09912 -1.28726,3.92379 -0.79308,0.82467 -1.93736,1.27331 -3.49022,1.27331 -0.01,5.3e-4 -0.0193,10e-4 -0.0289,0.002 -1.43972,0.0464 -2.54864,-0.35359 -3.33623,-1.1622 -0.7876,-0.80862 -1.30845,-2.09858 -1.30845,-4.03697 v -10.92956 -11.79515 c 0,-1.86313 0.68642,-2.90378 1.59163,-3.59358 0.90522,-0.6898 2.10462,-0.97255 2.97657,-0.97255 z" />
      <path
         id="path1697"
         style="color:#000000;font-style:normal;font-variant:normal;font-weight:normal;font-stretch:normal;font-size:medium;line-height:normal;font-family:sans-serif;font-variant-ligatures:normal;font-variant-position:normal;font-variant-caps:normal;font-variant-numeric:normal;font-variant-alternates:normal;font-variant-east-asian:normal;font-feature-settings:normal;font-variation-settings:normal;text-indent:0;text-align:start;text-decoration:none;text-decoration-line:none;text-decoration-style:solid;text-decoration-color:#000000;letter-spacing:normal;word-spacing:normal;text-transform:none;writing-mode:lr-tb;direction:ltr;text-orientation:mixed;dominant-baseline:auto;baseline-shift:baseline;text-anchor:start;white-space:normal;shape-padding:0;shape-margin:0;inline-size:0;clip-rule:nonzero;display:inline;overflow:visible;visibility:visible;isolation:auto;mix-blend-mode:normal;color-interpolation:sRGB;color-interpolation-filters:linearRGB;solid-color:#000000;solid-opacity:1;vector-effect:none;fill:#ffffff;fill-opacity:1;fill-rule:nonzero;stroke:none;stroke-width:1.807;stroke-linecap:butt;stroke-linejoin:round;stroke-miterlimit:4;stroke-dasharray:none;stroke-dashoffset:0;stroke-opacity:1;color-rendering:auto;image-rendering:auto;shape-rendering:auto;text-rendering:auto;enable-background:accumulate;stop-color:#000000"
         d="m 91.72949,434.84574 c -1.552689,0 -3.147705,0.4694 -4.392499,1.51154 -1.24479,1.04215 -2.08566,2.68225 -2.08566,4.75578 v 22.25601 c -0.0013,0.0196 -0.0021,0.0393 -0.0021,0.0589 v 21.87101 c 0,0.29817 0.01455,0.58446 0.04289,0.863 0.01225,0.11921 0.04808,0.2348 0.10542,0.34003 0.264597,1.68804 1.044808,3.02349 2.169893,3.83956 1.208336,0.87645 2.694289,1.22473 4.16202,1.22473 h 16.201116 c 0.003,2e-5 0.007,2e-5 0.01,0 5.18902,-0.0526 9.23257,-1.83893 11.96104,-4.76147 8e-4,-7.9e-4 10e-4,-10e-4 0.002,-0.002 0.0518,-0.0366 0.0996,-0.0785 0.14263,-0.12506 0.0416,-0.0462 0.0783,-0.0966 0.10955,-0.15038 2.73311,-3.09178 4.03799,-7.31806 3.93154,-11.96878 -0.002,-5.75784 -1.60518,-8.88208 -4.91804,-11.80651 -0.0201,-0.018 -0.0409,-0.035 -0.0625,-0.0512 -0.19465,-0.17083 -0.41097,-0.34375 -0.61702,-0.51521 3.52512,-4.32085 4.39766,-10.77933 2.34766,-16.40831 -2.16829,-5.95378 -7.66849,-10.91012 -16.38663,-10.93163 -0.0353,-9e-5 -0.0707,-5e-5 -0.10387,0 -0.0336,6e-5 -0.0654,-1.1e-4 -0.0977,0 z m 6.480742,12.32638 h 4.459168 c 3.74759,0 5.38783,2.37039 5.41004,4.73408 0.0222,2.36369 -1.54658,4.71496 -5.41004,4.71496 h -4.459168 z m -0.002,22.51336 H 105.814 c 1.46611,0.0225 2.42149,0.58465 3.09182,1.4397 0.67034,0.85505 1.01867,2.05067 1.00149,3.25975 -0.0172,1.20907 -0.40073,2.4085 -1.07384,3.25975 -0.67311,0.85125 -1.58614,1.38493 -2.90061,1.38493 h -7.724628 z" />
      <path
         id="path1691"
         style="color:#000000;font-style:normal;font-variant:normal;font-weight:normal;font-stretch:normal;font-size:medium;line-height:normal;font-family:sans-serif;font-variant-ligatures:normal;font-variant-position:normal;font-variant-caps:normal;font-variant-numeric:normal;font-variant-alternates:normal;font-variant-east-asian:normal;font-feature-settings:normal;font-variation-settings:normal;text-indent:0;text-align:start;text-decoration:none;text-decoration-line:none;text-decoration-style:solid;text-decoration-color:#000000;letter-spacing:normal;word-spacing:normal;text-transform:none;writing-mode:lr-tb;direction:ltr;text-orientation:mixed;dominant-baseline:auto;baseline-shift:baseline;text-anchor:start;white-space:normal;shape-padding:0;shape-margin:0;inline-size:0;clip-rule:nonzero;display:inline;overflow:visible;visibility:visible;isolation:auto;mix-blend-mode:normal;color-interpolation:sRGB;color-interpolation-filters:linearRGB;solid-color:#000000;solid-opacity:1;vector-effect:none;fill:#ffffff;fill-opacity:1;fill-rule:nonzero;stroke:none;stroke-width:1.807;stroke-linecap:butt;stroke-linejoin:round;stroke-miterlimit:4;stroke-dasharray:none;stroke-dashoffset:0;stroke-opacity:1;color-rendering:auto;image-rendering:auto;shape-rendering:auto;text-rendering:auto;enable-background:accumulate;stop-color:#000000"
         d="m 20.995302,434.21477 c -0.09296,1.3e-4 -0.185341,0.0146 -0.273886,0.0429 -1.599147,0.0532 -3.127698,0.52199 -4.271058,1.57614 -1.210704,1.11626 -1.935797,2.82397 -1.935797,4.96507 v 22.62911 22.08185 c 0,0.19396 0.0081,0.3837 0.01964,0.57206 2.44e-4,0.0164 0.001,0.0328 0.0021,0.0491 0.0075,0.10871 0.03467,0.21515 0.0801,0.3142 0.197638,1.8298 0.928698,3.29823 2.062408,4.23075 1.205254,0.99137 2.74931,1.41593 4.314466,1.41593 1.42559,0 2.944375,-0.4002 4.179588,-1.36943 1.158565,-0.90908 1.968307,-2.37922 2.18953,-4.25348 8e-5,-8e-4 -7.9e-5,-0.001 0,-0.002 0.0046,-0.009 0.0091,-0.0182 0.01344,-0.0274 0.0109,-0.0244 0.02074,-0.0492 0.02946,-0.0744 0.01535,-0.0452 0.0271,-0.0915 0.03514,-0.1385 0.0013,-0.005 0.0028,-0.0103 0.0041,-0.0155 v -0.002 c 8e-6,-0.002 8e-6,-0.004 0,-0.006 0.0041,-0.0226 0.0074,-0.0454 0.0098,-0.0682 0.0146,-0.20251 0.02119,-0.41097 0.02119,-0.62477 v -13.81879 l 10.205061,14.85387 0.0021,0.002 c 0.007,0.0117 0.01422,0.0233 0.0217,0.0346 l 1.060403,1.54306 c 2.443646,3.59589 5.790123,4.62657 8.531262,3.9026 2.742107,-0.72422 4.882777,-3.06201 5.189347,-5.85752 0.163549,-1.49147 -0.228971,-3.10727 -1.30483,-4.56044 l -0.0036,-0.004 -9.970965,-13.62501 c 0.305101,-0.13989 0.583313,-0.25788 0.990637,-0.48214 1.197358,-0.65925 2.757466,-1.73189 4.232299,-3.35173 0.0445,-0.0345 0.08567,-0.0731 0.122991,-0.11524 2.329286,-2.61793 4.382677,-6.69314 4.382677,-12.71292 0,-8.61696 -7.368984,-17.10335 -18.050578,-17.10335 z m 6.478156,12.95735 h 5.515943 c 1.461556,0 2.432921,0.55903 3.124875,1.42162 0.691954,0.86259 1.064056,2.07355 1.058333,3.29902 -0.0057,1.22547 -0.388474,2.44095 -1.085723,3.30678 -0.697248,0.86583 -1.666086,1.42162 -3.097485,1.42162 h -5.515943 z" />
      <path
         id="path1689"
         style="color:#000000;font-style:normal;font-variant:normal;font-weight:normal;font-stretch:normal;font-size:medium;line-height:normal;font-family:sans-serif;font-variant-ligatures:normal;font-variant-position:normal;font-variant-caps:normal;font-variant-numeric:normal;font-variant-alternates:normal;font-variant-east-asian:normal;font-feature-settings:normal;font-variation-settings:normal;text-indent:0;text-align:start;text-decoration:none;text-decoration-line:none;text-decoration-style:solid;text-decoration-color:#000000;letter-spacing:normal;word-spacing:normal;text-transform:none;writing-mode:lr-tb;direction:ltr;text-orientation:mixed;dominant-baseline:auto;baseline-shift:baseline;text-anchor:start;white-space:normal;shape-padding:0;shape-margin:0;inline-size:0;clip-rule:nonzero;display:inline;overflow:visible;visibility:visible;isolation:auto;mix-blend-mode:normal;color-interpolation:sRGB;color-interpolation-filters:linearRGB;solid-color:#000000;solid-opacity:1;vector-effect:none;fill:#ffffff;fill-opacity:1;fill-rule:nonzero;stroke:none;stroke-width:6.82961;stroke-linecap:butt;stroke-linejoin:round;stroke-miterlimit:4;stroke-dasharray:none;stroke-dashoffset:0;stroke-opacity:1;color-rendering:auto;image-rendering:auto;shape-rendering:auto;text-rendering:auto;enable-background:accumulate;stop-color:#000000"
         d="m 234.01367,8.5332031 c -0.28893,0.01781 -0.57442,0.072284 -0.84961,0.1621094 -13.86737,0.7774866 -25.44267,9.0104275 -29.66797,23.7773435 l -24.55859,85.535154 -22.35938,77.88477 c -0.011,0.0369 -0.0216,0.074 -0.0312,0.11133 -0.6858,2.72545 -0.92336,5.24958 -0.97266,7.66992 -0.0751,0.28689 -0.11254,0.58234 -0.11133,0.8789 0.005,0.41465 0.0847,0.82499 0.23633,1.21094 0.72295,13.18507 10.469,20.70025 18.94922,21.50195 0.14729,0.0148 0.29539,0.02 0.44336,0.0156 4.96735,-0.17764 10.32183,0.98407 15.99609,-1.41797 5.52465,-2.33873 10.0743,-8.17204 14.04102,-19.52344 0.086,-0.13509 0.16232,-0.27606 0.22851,-0.42187 0.0405,-0.0915 0.077,-0.18464 0.10938,-0.2793 0.003,-0.005 0.005,-0.0104 0.008,-0.0156 v -0.008 c 0.20115,-0.59402 0.38725,-1.19022 0.57617,-1.77929 l 0.008,-0.008 4.41407,-13.92187 h 47.44336 l 4.43554,14.67578 c 0.003,0.007 0.005,0.0143 0.008,0.0215 l 0.28124,0.88671 0.008,0.0371 c 0.005,0.0104 0.009,0.0209 0.0137,0.0312 0.0975,0.30306 0.23684,0.59101 0.41406,0.85547 3.51735,10.47436 8.22909,16.45711 13.76758,19.18555 5.67413,2.79526 11.42631,2.27917 16.2168,2.08203 10.23317,0 20.84375,-8.44015 21.59179,-21.84961 0.16977,-0.41002 0.25801,-0.8492 0.25977,-1.29297 1e-5,-0.005 1e-5,-0.0104 0,-0.0156 -4.8e-4,-0.41315 -0.0759,-0.82278 -0.22266,-1.20899 -0.11691,-3.03662 -0.53123,-6.20587 -1.71289,-9.59765 l 0.0527,0.14843 -22.61914,-75.89453 -25.48828,-85.5332 c -0.003,-0.0072 -0.005,-0.01433 -0.008,-0.02148 C 260.19184,16.949075 248.18883,8.9631697 234.317,8.5347602 c -0.069,-0.00209 -0.13805,-0.00209 -0.20703,0 -0.0319,-4.47e-4 -0.0638,-4.47e-4 -0.0957,0 z m -0.64258,96.9902369 4.19336,14.38086 6.00782,20.63281 h -20.67579 l 6.16407,-20.61133 z"
         transform="matrix(0.26458333,0,0,0.26458333,-77.083984,431.95703)" />
      <path
         style="color:#000000;font-style:normal;font-variant:normal;font-weight:normal;font-stretch:normal;font-size:medium;line-height:normal;font-family:sans-serif;font-variant-ligatures:normal;font-variant-position:normal;font-variant-caps:normal;font-variant-numeric:normal;font-variant-alternates:normal;font-variant-east-asian:normal;font-feature-settings:normal;font-variation-settings:normal;text-indent:0;text-align:start;text-decoration:none;text-decoration-line:none;text-decoration-style:solid;text-decoration-color:#000000;letter-spacing:normal;word-spacing:normal;text-transform:none;writing-mode:lr-tb;direction:ltr;text-orientation:mixed;dominant-baseline:auto;baseline-shift:baseline;text-anchor:start;white-space:normal;shape-padding:0;shape-margin:0;inline-size:0;clip-rule:nonzero;display:inline;overflow:visible;visibility:visible;isolation:auto;mix-blend-mode:normal;color-interpolation:sRGB;color-interpolation-filters:linearRGB;solid-color:#000000;solid-opacity:1;vector-effect:none;fill:#ffffff;fill-opacity:1;fill-rule:nonzero;stroke:none;stroke-width:1.807;stroke-linecap:butt;stroke-linejoin:round;stroke-miterlimit:4;stroke-dasharray:none;stroke-dashoffset:0;stroke-opacity:1;color-rendering:auto;image-rendering:auto;shape-rendering:auto;text-rendering:auto;enable-background:accumulate;stop-color:#000000"
         d="m -73.637166,434.42561 c -0.08799,-3.2e-4 -0.175562,0.0122 -0.259932,0.0372 -1.505914,0.0452 -3.045638,0.45141 -4.26744,1.43764 -1.292456,1.04326 -2.164209,2.72477 -2.164209,4.89841 v 22.62859 c 3.7e-4,0.0138 0.0011,0.0276 0.0021,0.0413 v 22.04103 c 0,0.20845 0.0064,0.41626 0.02119,0.6227 9.3e-5,0.001 -9.3e-5,0.003 0,0.004 0.0091,0.11564 0.04028,0.22845 0.09198,0.33228 0.221754,1.87584 1.03629,3.35306 2.224671,4.26176 1.266968,0.96877 2.838648,1.36322 4.351672,1.36322 1.469144,0 2.979831,-0.40254 4.183207,-1.3808 1.130035,-0.91862 1.882432,-2.3904 2.086178,-4.25606 0.05001,-0.10539 0.07914,-0.21945 0.08578,-0.3359 0.01126,-0.1961 0.01051,-0.40017 0.01757,-0.61133 v -15.82436 h 9.557039 v 15.82436 c 0,0.20945 0.0055,0.41647 0.01912,0.62114 0.0078,0.11386 0.03707,0.2252 0.0863,0.32815 0.211811,1.8726 0.995534,3.34737 2.148188,4.26176 1.227233,0.97356 2.755567,1.37304 4.224549,1.37304 1.469143,0 2.997267,-0.39944 4.22455,-1.37304 1.151332,-0.91335 1.931752,-2.38683 2.144573,-4.25608 0.05143,-0.10508 0.08197,-0.21916 0.08992,-0.33589 0.01333,-0.20277 0.01963,-0.4093 0.01963,-0.61908 V 463.4278 440.90204 c 0,-2.16602 -0.830014,-3.85469 -2.07636,-4.92941 -1.246347,-1.07473 -2.851179,-1.5472 -4.404382,-1.5472 -1.587373,0 -3.196167,0.43548 -4.437457,1.48828 -1.24129,1.0528 -2.040701,2.7276 -2.040701,4.88498 v 15.92771 h -9.449546 v -16.03313 c 0,-2.07344 -0.841147,-3.71359 -2.085661,-4.75578 -1.244514,-1.04219 -2.839811,-1.51206 -4.392497,-1.51206 z"
         id="path1695" />
      <path
         style="color:#000000;font-style:normal;font-variant:normal;font-weight:normal;font-stretch:normal;font-size:medium;line-height:normal;font-family:sans-serif;font-variant-ligatures:normal;font-variant-position:normal;font-variant-caps:normal;font-variant-numeric:normal;font-variant-alternates:normal;font-variant-east-asian:normal;font-feature-settings:normal;font-variation-settings:normal;text-indent:0;text-align:start;text-decoration:none;text-decoration-line:none;text-decoration-style:solid;text-decoration-color:#000000;letter-spacing:normal;word-spacing:normal;text-transform:none;writing-mode:lr-tb;direction:ltr;text-orientation:mixed;dominant-baseline:auto;baseline-shift:baseline;text-anchor:start;white-space:normal;shape-padding:0;shape-margin:0;inline-size:0;clip-rule:nonzero;display:inline;overflow:visible;visibility:visible;isolation:auto;mix-blend-mode:normal;color-interpolation:sRGB;color-interpolation-filters:linearRGB;solid-color:#000000;solid-opacity:1;vector-effect:none;fill:#ffffff;fill-opacity:1;fill-rule:nonzero;stroke:none;stroke-width:1.807;stroke-linecap:butt;stroke-linejoin:round;stroke-miterlimit:4;stroke-dasharray:none;stroke-dashoffset:0;stroke-opacity:1;color-rendering:auto;image-rendering:auto;shape-rendering:auto;text-rendering:auto;enable-background:accumulate;stop-color:#000000"
         d="m 67.072079,434.31399 v 5.2e-4 c -0.101704,-5e-5 -0.202687,0.0171 -0.298691,0.0506 -1.474132,0.0617 -2.937709,0.5317 -4.066418,1.55494 -1.206336,1.09362 -1.986442,2.77239 -1.986442,4.87878 v 22.5702 c -0.0013,0.0196 -0.0021,0.0392 -0.0021,0.0589 v 22.08185 c 0,0.20076 0.0089,0.39224 0.0217,0.57826 2.54e-4,0.0162 0.0011,0.0324 0.0021,0.0486 0.0086,0.11117 0.03766,0.2198 0.08578,0.32039 0.21527,1.83951 1.003594,3.30565 2.166276,4.22869 1.237155,0.98214 2.789277,1.40611 4.31033,1.40611 1.521579,0 3.090714,-0.42252 4.351673,-1.40043 1.180682,-0.91566 1.992763,-2.37838 2.220537,-4.21473 0.0061,-0.0123 0.01199,-0.0247 0.01757,-0.0372 0.0109,-0.0244 0.02074,-0.0492 0.02946,-0.0744 0.0089,-0.025 0.01661,-0.0503 0.02326,-0.076 0.0065,-0.0258 0.01183,-0.0518 0.01601,-0.078 0.0035,-0.0228 0.0061,-0.0457 0.0078,-0.0687 4.8e-5,-5.3e-4 -5e-5,-5.3e-4 0,-0.002 3e-6,-0.001 3e-6,-0.003 0,-0.004 0.0016,-0.0222 0.0021,-0.0444 0.0021,-0.0667 0.0127,-0.18376 0.02119,-0.36986 0.02119,-0.56017 v -22.08234 -22.83995 c 0,-1.99159 -0.884656,-3.60114 -2.158008,-4.64416 -1.273355,-1.04302 -2.898899,-1.56541 -4.496366,-1.62522 -0.0038,-3e-5 -0.0076,-3e-5 -0.01138,0 -0.0699,-0.002 -0.155432,-0.004 -0.256315,-0.004 z"
         id="path1693" />
    </g>
  </g>
  <style
     id="style1151">.st1{fill:#e20e17}</style>
  <style
     id="style1338">.st1{fill:#e20e17}</style>
</svg>
